<svg xmlns="http://www.w3.org/2000/svg"  viewBox="0 0 32 32" width="50px" height="50px"><path fill="#333" d="M6,22h18.75c3.998,0,7.25-3.333,7.25-7.429c0-4.376-3.723-7.914-8.081-7.377 C22.217,4.015,18.942,2,15.375,2C10.837,2,6.91,5.257,5.892,9.715C2.633,9.775,0,12.507,0,15.857C0,19.244,2.691,22,6,22z M6,11.714c0.193,0,0.383,0.02,0.569,0.048c0.266,0.04,0.535-0.029,0.748-0.191c0.214-0.161,0.354-0.401,0.39-0.667 C8.23,6.968,11.526,4,15.375,4c3.034,0,5.806,1.85,7.06,4.712c0.193,0.441,0.669,0.68,1.146,0.572 c3.427-0.806,6.421,1.903,6.42,5.287C30,17.564,27.645,20,24.75,20H6c-2.206,0-4-1.858-4-4.143C2,13.573,3.794,11.714,6,11.714z"/><path fill="#333" d="M10,28.125C10,27.124,8.361,23,7.001,23C5.64,23,4,27.124,4,28.125C4,29.764,5.29,31,7.001,31 C8.711,31,10,29.764,10,28.125z M6,28.125c0-0.44,0.531-1.626,1-2.47c0.469,0.844,1,2.03,1,2.47C8,28.771,7.462,29,7.001,29 C6.539,29,6,28.771,6,28.125z"/><path fill="#333" d="M16.001,31C17.711,31,19,29.764,19,28.125C19,27.124,17.361,23,16.001,23C14.64,23,13,27.124,13,28.125 C13,29.764,14.29,31,16.001,31z M16,25.655c0.469,0.844,1,2.03,1,2.47C17,28.771,16.462,29,16.001,29 C15.539,29,15,28.771,15,28.125C15,27.685,15.531,26.499,16,25.655z"/><path fill="#333" d="M28,28.125C28,27.124,26.361,23,25.001,23C23.64,23,22,27.124,22,28.125C22,29.764,23.29,31,25.001,31 C26.711,31,28,29.764,28,28.125z M24,28.125c0-0.44,0.531-1.626,1-2.47c0.469,0.844,1,2.03,1,2.47C26,28.771,25.462,29,25.001,29 C24.539,29,24,28.771,24,28.125z"/></svg>