<svg xmlns="http://www.w3.org/2000/svg"  viewBox="0 0 30 30" width="50px" height="50px"><path d="M 9.984375 0.98632812 A 1.0001 1.0001 0 0 0 9 2 L 9 3 A 1.0001 1.0001 0 1 0 11 3 L 11 2 A 1.0001 1.0001 0 0 0 9.984375 0.98632812 z M 4.3320312 3.3320312 A 1.0001 1.0001 0 0 0 3.6367188 5.0507812 L 4.34375 5.7578125 A 1.0001 1.0001 0 1 0 5.7578125 4.34375 L 5.0507812 3.6367188 A 1.0001 1.0001 0 0 0 4.3320312 3.3320312 z M 15.636719 3.3339844 A 1.0001 1.0001 0 0 0 14.949219 3.6367188 L 14.242188 4.34375 A 1.0001 1.0001 0 1 0 15.65625 5.7578125 L 16.363281 5.0507812 A 1.0001 1.0001 0 0 0 15.636719 3.3339844 z M 24.980469 3.9902344 A 1.0001 1.0001 0 0 0 24.292969 4.2929688 L 4.2929688 24.292969 A 1.0001 1.0001 0 1 0 5.7070312 25.707031 L 25.707031 5.7070312 A 1.0001 1.0001 0 0 0 24.980469 3.9902344 z M 10 6 A 4 4 0 0 0 10 14 A 4 4 0 0 0 10 6 z M 2 9 A 1.0001 1.0001 0 1 0 2 11 L 3 11 A 1.0001 1.0001 0 1 0 3 9 L 2 9 z M 24 12 A 1 1 0 0 0 24 14 A 1 1 0 0 0 24 12 z M 5.03125 13.939453 A 1.0001 1.0001 0 0 0 4.34375 14.242188 L 3.6367188 14.949219 A 1.0001 1.0001 0 1 0 5.0507812 16.363281 L 5.7578125 15.65625 A 1.0001 1.0001 0 0 0 5.03125 13.939453 z M 26 16 A 1 1 0 0 0 26 18 A 1 1 0 0 0 26 16 z M 20.169922 16.169922 C 17.776922 16.765922 16 18.922 16 21.5 C 16 24.538 18.462 27 21.5 27 C 24.078 27 26.234078 25.223078 26.830078 22.830078 C 26.403078 22.936078 25.96 23 25.5 23 C 22.462 23 20 20.538 20 17.5 C 20 17.04 20.063922 16.596922 20.169922 16.169922 z"/></svg>